<mxfile host="app.diagrams.net" agent="Mozilla/5.0 (X11; Linux x86_64) AppleWebKit/537.36 (KHTML, like Gecko) Chrome/131.0.0.0 Safari/537.36" version="24.8.9">
  <diagram name="Page-1" id="L7cLLYTcc9PrmoBAb1sp">
    <mxGraphModel dx="2208" dy="960" grid="1" gridSize="10" guides="1" tooltips="1" connect="1" arrows="1" fold="1" page="1" pageScale="1" pageWidth="850" pageHeight="1100" background="#ffffff" math="0" shadow="0">
      <root>
        <mxCell id="0" />
        <mxCell id="1" parent="0" />
        <mxCell id="9R0KCMgDPJzL-chy9AUO-49" value="SkillManager" style="swimlane;fontStyle=1;align=center;verticalAlign=top;childLayout=stackLayout;horizontal=1;startSize=26;horizontalStack=0;resizeParent=1;resizeParentMax=0;resizeLast=0;collapsible=1;marginBottom=0;whiteSpace=wrap;html=1;shadow=0;" parent="1" vertex="1">
          <mxGeometry x="-750" y="240" width="470" height="130" as="geometry" />
        </mxCell>
        <mxCell id="9R0KCMgDPJzL-chy9AUO-50" value="- _skills: std::deque&amp;lt;std::unique_ptr&amp;lt;ISkill&amp;gt;&amp;nbsp;" style="text;strokeColor=none;fillColor=none;align=left;verticalAlign=top;spacingLeft=4;spacingRight=4;overflow=hidden;rotatable=0;points=[[0,0.5],[1,0.5]];portConstraint=eastwest;whiteSpace=wrap;html=1;shadow=0;" parent="9R0KCMgDPJzL-chy9AUO-49" vertex="1">
          <mxGeometry y="26" width="470" height="34" as="geometry" />
        </mxCell>
        <mxCell id="9R0KCMgDPJzL-chy9AUO-51" value="" style="line;strokeWidth=1;fillColor=none;align=left;verticalAlign=middle;spacingTop=-1;spacingLeft=3;spacingRight=3;rotatable=0;labelPosition=right;points=[];portConstraint=eastwest;strokeColor=inherit;shadow=0;" parent="9R0KCMgDPJzL-chy9AUO-49" vertex="1">
          <mxGeometry y="60" width="470" height="8" as="geometry" />
        </mxCell>
        <mxCell id="9R0KCMgDPJzL-chy9AUO-52" value="+ SkillManager()&lt;div&gt;+ add_random_skill(): void&lt;/div&gt;&lt;div&gt;+ apply(field: GameField&amp;amp;, manager: ShipManager&amp;amp;, x: std::size_t, y: std::size_t): void&lt;/div&gt;" style="text;strokeColor=none;fillColor=none;align=left;verticalAlign=top;spacingLeft=4;spacingRight=4;overflow=hidden;rotatable=0;points=[[0,0.5],[1,0.5]];portConstraint=eastwest;whiteSpace=wrap;html=1;shadow=0;" parent="9R0KCMgDPJzL-chy9AUO-49" vertex="1">
          <mxGeometry y="68" width="470" height="62" as="geometry" />
        </mxCell>
        <mxCell id="9R0KCMgDPJzL-chy9AUO-91" value="" style="group;shadow=0;" parent="1" vertex="1" connectable="0">
          <mxGeometry x="-270" y="440" width="340" height="160" as="geometry" />
        </mxCell>
        <mxCell id="9R0KCMgDPJzL-chy9AUO-57" value="ShipManager" style="swimlane;fontStyle=1;align=center;verticalAlign=top;childLayout=stackLayout;horizontal=1;startSize=26;horizontalStack=0;resizeParent=1;resizeParentMax=0;resizeLast=0;collapsible=1;marginBottom=0;whiteSpace=wrap;html=1;container=0;shadow=0;" parent="9R0KCMgDPJzL-chy9AUO-91" vertex="1">
          <mxGeometry width="340" height="160" as="geometry" />
        </mxCell>
        <mxCell id="9R0KCMgDPJzL-chy9AUO-58" value="- _ships: std::vector&amp;lt;ShipPtr&amp;gt;" style="text;strokeColor=none;fillColor=none;align=left;verticalAlign=top;spacingLeft=4;spacingRight=4;overflow=hidden;rotatable=0;points=[[0,0.5],[1,0.5]];portConstraint=eastwest;whiteSpace=wrap;html=1;container=0;shadow=0;" parent="9R0KCMgDPJzL-chy9AUO-91" vertex="1">
          <mxGeometry y="29.71428571428571" width="340" height="38.857142857142854" as="geometry" />
        </mxCell>
        <mxCell id="9R0KCMgDPJzL-chy9AUO-59" value="" style="line;strokeWidth=1;fillColor=none;align=left;verticalAlign=middle;spacingTop=-1;spacingLeft=3;spacingRight=3;rotatable=0;labelPosition=right;points=[];portConstraint=eastwest;strokeColor=inherit;container=0;shadow=0;" parent="9R0KCMgDPJzL-chy9AUO-91" vertex="1">
          <mxGeometry y="68.57142857142857" width="300" height="9.142857142857142" as="geometry" />
        </mxCell>
        <mxCell id="9R0KCMgDPJzL-chy9AUO-60" value="+ ShipManager(sizes: std::initializer_list&amp;lt;std::size_t&amp;gt;)&lt;div&gt;+ ~ShipManager()&lt;/div&gt;&lt;div&gt;+ size(): std::size_t&lt;/div&gt;&lt;div&gt;+ operator[](index: std::size_t): Ship&amp;amp;&lt;/div&gt;" style="text;strokeColor=none;fillColor=none;align=left;verticalAlign=top;spacingLeft=4;spacingRight=4;overflow=hidden;rotatable=0;points=[[0,0.5],[1,0.5]];portConstraint=eastwest;whiteSpace=wrap;html=1;container=0;shadow=0;" parent="9R0KCMgDPJzL-chy9AUO-91" vertex="1">
          <mxGeometry y="77.71428571428571" width="340" height="82.28571428571428" as="geometry" />
        </mxCell>
        <mxCell id="9R0KCMgDPJzL-chy9AUO-101" value="" style="endArrow=none;html=1;rounded=0;exitX=-0.001;exitY=1.107;exitDx=0;exitDy=0;exitPerimeter=0;entryX=1.006;entryY=1.073;entryDx=0;entryDy=0;entryPerimeter=0;shadow=0;" parent="9R0KCMgDPJzL-chy9AUO-91" source="9R0KCMgDPJzL-chy9AUO-58" target="9R0KCMgDPJzL-chy9AUO-58" edge="1">
          <mxGeometry width="50" height="50" relative="1" as="geometry">
            <mxPoint x="110" y="80" as="sourcePoint" />
            <mxPoint x="160" y="22.857142857142854" as="targetPoint" />
          </mxGeometry>
        </mxCell>
        <mxCell id="9R0KCMgDPJzL-chy9AUO-93" value="" style="group;shadow=0;" parent="1" vertex="1" connectable="0">
          <mxGeometry x="110" y="40" width="630" height="390" as="geometry" />
        </mxCell>
        <mxCell id="9R0KCMgDPJzL-chy9AUO-5" value="Scanner" style="swimlane;fontStyle=1;align=center;verticalAlign=top;childLayout=stackLayout;horizontal=1;startSize=26;horizontalStack=0;resizeParent=1;resizeParentMax=0;resizeLast=0;collapsible=1;marginBottom=0;whiteSpace=wrap;html=1;container=0;shadow=0;" parent="9R0KCMgDPJzL-chy9AUO-93" vertex="1">
          <mxGeometry y="220" width="550" height="80" as="geometry" />
        </mxCell>
        <mxCell id="9R0KCMgDPJzL-chy9AUO-9" value="&lt;div&gt;&amp;lt;&amp;lt;interface&amp;gt;&amp;gt;&lt;/div&gt;ISkill" style="swimlane;fontStyle=1;align=center;verticalAlign=top;childLayout=stackLayout;horizontal=1;startSize=40;horizontalStack=0;resizeParent=1;resizeParentMax=0;resizeLast=0;collapsible=1;marginBottom=0;whiteSpace=wrap;html=1;container=0;shadow=0;" parent="9R0KCMgDPJzL-chy9AUO-93" vertex="1">
          <mxGeometry width="630" height="114" as="geometry">
            <mxRectangle width="110" height="40" as="alternateBounds" />
          </mxGeometry>
        </mxCell>
        <mxCell id="9R0KCMgDPJzL-chy9AUO-13" value="Bombing&lt;div&gt;&lt;br&gt;&lt;/div&gt;" style="swimlane;fontStyle=1;align=center;verticalAlign=top;childLayout=stackLayout;horizontal=1;startSize=26;horizontalStack=0;resizeParent=1;resizeParentMax=0;resizeLast=0;collapsible=1;marginBottom=0;whiteSpace=wrap;html=1;container=0;shadow=0;" parent="9R0KCMgDPJzL-chy9AUO-93" vertex="1">
          <mxGeometry y="310" width="550" height="80" as="geometry" />
        </mxCell>
        <mxCell id="9R0KCMgDPJzL-chy9AUO-16" value="DoubleDamage" style="swimlane;fontStyle=1;align=center;verticalAlign=top;childLayout=stackLayout;horizontal=1;startSize=26;horizontalStack=0;resizeParent=1;resizeParentMax=0;resizeLast=0;collapsible=1;marginBottom=0;whiteSpace=wrap;html=1;container=0;shadow=0;" parent="9R0KCMgDPJzL-chy9AUO-93" vertex="1">
          <mxGeometry y="130" width="550" height="80" as="geometry" />
        </mxCell>
        <mxCell id="9R0KCMgDPJzL-chy9AUO-46" value="" style="endArrow=block;dashed=1;endFill=0;endSize=12;html=1;rounded=0;entryX=0.897;entryY=1.02;entryDx=0;entryDy=0;entryPerimeter=0;exitX=1;exitY=0.5;exitDx=0;exitDy=0;shadow=0;" parent="9R0KCMgDPJzL-chy9AUO-93" source="9R0KCMgDPJzL-chy9AUO-18" target="9R0KCMgDPJzL-chy9AUO-12" edge="1">
          <mxGeometry width="160" relative="1" as="geometry">
            <mxPoint x="55" y="400" as="sourcePoint" />
            <mxPoint x="215" y="400" as="targetPoint" />
            <Array as="points">
              <mxPoint x="565" y="187" />
            </Array>
          </mxGeometry>
        </mxCell>
        <mxCell id="9R0KCMgDPJzL-chy9AUO-47" value="" style="endArrow=block;dashed=1;endFill=0;endSize=12;html=1;rounded=0;exitX=1;exitY=0.5;exitDx=0;exitDy=0;entryX=0.938;entryY=1.002;entryDx=0;entryDy=0;entryPerimeter=0;shadow=0;" parent="9R0KCMgDPJzL-chy9AUO-93" source="9R0KCMgDPJzL-chy9AUO-8" target="9R0KCMgDPJzL-chy9AUO-12" edge="1">
          <mxGeometry width="160" relative="1" as="geometry">
            <mxPoint x="55" y="400" as="sourcePoint" />
            <mxPoint x="685" y="170" as="targetPoint" />
            <Array as="points">
              <mxPoint x="591" y="277" />
            </Array>
          </mxGeometry>
        </mxCell>
        <mxCell id="9R0KCMgDPJzL-chy9AUO-48" value="" style="endArrow=block;dashed=1;endFill=0;endSize=12;html=1;rounded=0;entryX=0.98;entryY=1.02;entryDx=0;entryDy=0;entryPerimeter=0;exitX=1;exitY=0.5;exitDx=0;exitDy=0;shadow=0;" parent="9R0KCMgDPJzL-chy9AUO-93" source="9R0KCMgDPJzL-chy9AUO-15" target="9R0KCMgDPJzL-chy9AUO-12" edge="1">
          <mxGeometry width="160" relative="1" as="geometry">
            <mxPoint x="55" y="400" as="sourcePoint" />
            <mxPoint x="625" y="110" as="targetPoint" />
            <Array as="points">
              <mxPoint x="617" y="367" />
            </Array>
          </mxGeometry>
        </mxCell>
        <mxCell id="9R0KCMgDPJzL-chy9AUO-7" value="" style="line;strokeWidth=1;fillColor=none;align=left;verticalAlign=middle;spacingTop=-1;spacingLeft=3;spacingRight=3;rotatable=0;labelPosition=right;points=[];portConstraint=eastwest;strokeColor=inherit;container=0;shadow=0;" parent="9R0KCMgDPJzL-chy9AUO-93" vertex="1">
          <mxGeometry y="246" width="550" height="8" as="geometry" />
        </mxCell>
        <mxCell id="9R0KCMgDPJzL-chy9AUO-8" value="+ apply(field: GameField&amp;amp;, manager: ShipManager&amp;amp;, x= 0: std::size_t, y = 0: std::size_t) = 0: void;&lt;div&gt;+ name() = 0: std::string&lt;/div&gt;" style="text;strokeColor=none;fillColor=none;align=left;verticalAlign=top;spacingLeft=4;spacingRight=4;overflow=hidden;rotatable=0;points=[[0,0.5],[1,0.5]];portConstraint=eastwest;whiteSpace=wrap;html=1;container=0;shadow=0;" parent="9R0KCMgDPJzL-chy9AUO-93" vertex="1">
          <mxGeometry y="254" width="550" height="46" as="geometry" />
        </mxCell>
        <mxCell id="9R0KCMgDPJzL-chy9AUO-11" value="" style="line;strokeWidth=1;fillColor=none;align=left;verticalAlign=middle;spacingTop=-1;spacingLeft=3;spacingRight=3;rotatable=0;labelPosition=right;points=[];portConstraint=eastwest;strokeColor=inherit;container=0;shadow=0;" parent="9R0KCMgDPJzL-chy9AUO-93" vertex="1">
          <mxGeometry y="40" width="630" height="8" as="geometry" />
        </mxCell>
        <mxCell id="9R0KCMgDPJzL-chy9AUO-12" value="+ virtual apply(field: GameField&amp;amp;, manager: ShipManager&amp;amp;, x= 0: std::size_t, y = 0: std::size_t) = 0: void;&lt;div&gt;+ virtual name() = 0: std::string&lt;/div&gt;" style="text;strokeColor=none;fillColor=none;align=left;verticalAlign=top;spacingLeft=4;spacingRight=4;overflow=hidden;rotatable=0;points=[[0,0.5],[1,0.5]];portConstraint=eastwest;whiteSpace=wrap;html=1;container=0;shadow=0;" parent="9R0KCMgDPJzL-chy9AUO-93" vertex="1">
          <mxGeometry y="48" width="630" height="66" as="geometry" />
        </mxCell>
        <mxCell id="9R0KCMgDPJzL-chy9AUO-14" value="" style="line;strokeWidth=1;fillColor=none;align=left;verticalAlign=middle;spacingTop=-1;spacingLeft=3;spacingRight=3;rotatable=0;labelPosition=right;points=[];portConstraint=eastwest;strokeColor=inherit;container=0;shadow=0;" parent="9R0KCMgDPJzL-chy9AUO-93" vertex="1">
          <mxGeometry y="336" width="550" height="8" as="geometry" />
        </mxCell>
        <mxCell id="9R0KCMgDPJzL-chy9AUO-15" value="+ apply(field: GameField&amp;amp;, manager: ShipManager&amp;amp;, x= 0: std::size_t, y = 0: std::size_t) = 0: void;&lt;div&gt;+ name() = 0: std::string&lt;/div&gt;" style="text;strokeColor=none;fillColor=none;align=left;verticalAlign=top;spacingLeft=4;spacingRight=4;overflow=hidden;rotatable=0;points=[[0,0.5],[1,0.5]];portConstraint=eastwest;whiteSpace=wrap;html=1;container=0;shadow=0;" parent="9R0KCMgDPJzL-chy9AUO-93" vertex="1">
          <mxGeometry y="344" width="550" height="46" as="geometry" />
        </mxCell>
        <mxCell id="9R0KCMgDPJzL-chy9AUO-17" value="" style="line;strokeWidth=1;fillColor=none;align=left;verticalAlign=middle;spacingTop=-1;spacingLeft=3;spacingRight=3;rotatable=0;labelPosition=right;points=[];portConstraint=eastwest;strokeColor=inherit;container=0;shadow=0;" parent="9R0KCMgDPJzL-chy9AUO-93" vertex="1">
          <mxGeometry y="156" width="550" height="8" as="geometry" />
        </mxCell>
        <mxCell id="9R0KCMgDPJzL-chy9AUO-18" value="+ apply(field: GameField&amp;amp;, manager: ShipManager&amp;amp;, x= 0: std::size_t, y = 0: std::size_t) = 0: void;&lt;div&gt;+ virtual name() = 0: std::string&lt;/div&gt;" style="text;strokeColor=none;fillColor=none;align=left;verticalAlign=top;spacingLeft=4;spacingRight=4;overflow=hidden;rotatable=0;points=[[0,0.5],[1,0.5]];portConstraint=eastwest;whiteSpace=wrap;html=1;container=0;shadow=0;" parent="9R0KCMgDPJzL-chy9AUO-93" vertex="1">
          <mxGeometry y="164" width="550" height="46" as="geometry" />
        </mxCell>
        <mxCell id="9R0KCMgDPJzL-chy9AUO-95" value="" style="group;shadow=0;" parent="1" vertex="1" connectable="0">
          <mxGeometry x="-270" y="650" width="340" height="436" as="geometry" />
        </mxCell>
        <mxCell id="9R0KCMgDPJzL-chy9AUO-53" value="Ship" style="swimlane;fontStyle=1;align=center;verticalAlign=top;childLayout=stackLayout;horizontal=1;startSize=26;horizontalStack=0;resizeParent=1;resizeParentMax=0;resizeLast=0;collapsible=1;marginBottom=0;whiteSpace=wrap;html=1;container=0;shadow=0;" parent="9R0KCMgDPJzL-chy9AUO-95" vertex="1">
          <mxGeometry width="340" height="270" as="geometry" />
        </mxCell>
        <mxCell id="9R0KCMgDPJzL-chy9AUO-65" value="&amp;lt;&amp;lt;enumeration&amp;gt;&amp;gt;&lt;div&gt;Size&lt;/div&gt;" style="swimlane;fontStyle=0;childLayout=stackLayout;horizontal=1;startSize=40;fillColor=none;horizontalStack=0;resizeParent=1;resizeParentMax=0;resizeLast=0;collapsible=1;marginBottom=0;whiteSpace=wrap;html=1;container=0;shadow=0;" parent="9R0KCMgDPJzL-chy9AUO-95" vertex="1">
          <mxGeometry y="326" width="150" height="110" as="geometry" />
        </mxCell>
        <mxCell id="9R0KCMgDPJzL-chy9AUO-69" value="&amp;lt;&amp;lt;enumeration&amp;gt;&amp;gt;&lt;div&gt;SegState&lt;/div&gt;" style="swimlane;fontStyle=0;childLayout=stackLayout;horizontal=1;startSize=40;fillColor=none;horizontalStack=0;resizeParent=1;resizeParentMax=0;resizeLast=0;collapsible=1;marginBottom=0;whiteSpace=wrap;html=1;container=0;shadow=0;" parent="9R0KCMgDPJzL-chy9AUO-95" vertex="1">
          <mxGeometry x="190" y="326" width="150" height="110" as="geometry" />
        </mxCell>
        <mxCell id="9R0KCMgDPJzL-chy9AUO-72" value="" style="endArrow=open;startArrow=circlePlus;endFill=0;startFill=0;endSize=8;html=1;rounded=0;entryX=0.5;entryY=0;entryDx=0;entryDy=0;shadow=0;" parent="9R0KCMgDPJzL-chy9AUO-95" target="9R0KCMgDPJzL-chy9AUO-65" edge="1">
          <mxGeometry width="160" relative="1" as="geometry">
            <mxPoint x="75" y="270" as="sourcePoint" />
            <mxPoint x="150" y="196" as="targetPoint" />
          </mxGeometry>
        </mxCell>
        <mxCell id="9R0KCMgDPJzL-chy9AUO-73" value="" style="endArrow=open;startArrow=circlePlus;endFill=0;startFill=0;endSize=8;html=1;rounded=0;entryX=0.5;entryY=0;entryDx=0;entryDy=0;shadow=0;" parent="9R0KCMgDPJzL-chy9AUO-95" edge="1">
          <mxGeometry width="160" relative="1" as="geometry">
            <mxPoint x="264.40999999999997" y="270" as="sourcePoint" />
            <mxPoint x="264.40999999999997" y="326" as="targetPoint" />
          </mxGeometry>
        </mxCell>
        <mxCell id="9R0KCMgDPJzL-chy9AUO-54" value="&lt;div&gt;+ Type: Size&lt;/div&gt;&lt;div&gt;+ Type: SegState&lt;/div&gt;- _size: std::size_t&lt;div&gt;- _segs: std::vector&amp;lt;SegState&amp;gt;&lt;/div&gt;&lt;div&gt;- _health: std::size_t&lt;/div&gt;&lt;div&gt;- _vertical: bool&lt;/div&gt;" style="text;strokeColor=none;fillColor=none;align=left;verticalAlign=top;spacingLeft=4;spacingRight=4;overflow=hidden;rotatable=0;points=[[0,0.5],[1,0.5]];portConstraint=eastwest;whiteSpace=wrap;html=1;container=0;shadow=0;" parent="9R0KCMgDPJzL-chy9AUO-95" vertex="1">
          <mxGeometry y="26" width="340" height="104" as="geometry" />
        </mxCell>
        <mxCell id="9R0KCMgDPJzL-chy9AUO-55" value="" style="line;strokeWidth=1;fillColor=none;align=left;verticalAlign=middle;spacingTop=-1;spacingLeft=3;spacingRight=3;rotatable=0;labelPosition=right;points=[];portConstraint=eastwest;strokeColor=inherit;container=0;shadow=0;" parent="9R0KCMgDPJzL-chy9AUO-95" vertex="1">
          <mxGeometry y="130" width="340" height="8" as="geometry" />
        </mxCell>
        <mxCell id="9R0KCMgDPJzL-chy9AUO-56" value="+ Ship(size: std::size_t)&lt;div&gt;+ operator[](seg_index: std_size_t): Ship::SegState&amp;amp;&lt;/div&gt;&lt;div&gt;+ size(): std::size_t&lt;/div&gt;&lt;div&gt;+ segs(): std::vector&amp;lt;SegState&amp;gt;&lt;/div&gt;&lt;div&gt;+ health(): std::size_t&amp;nbsp;&lt;/div&gt;&lt;div&gt;+ vertical(): bool&lt;/div&gt;&lt;div&gt;+ set_vertical(): bool&lt;/div&gt;&lt;div&gt;+ take_damage(seg_index: std::size_t): void&lt;/div&gt;" style="text;strokeColor=none;fillColor=none;align=left;verticalAlign=top;spacingLeft=4;spacingRight=4;overflow=hidden;rotatable=0;points=[[0,0.5],[1,0.5]];portConstraint=eastwest;whiteSpace=wrap;html=1;container=0;shadow=0;" parent="9R0KCMgDPJzL-chy9AUO-95" vertex="1">
          <mxGeometry y="138" width="340" height="132" as="geometry" />
        </mxCell>
        <mxCell id="9R0KCMgDPJzL-chy9AUO-66" value="SMALL = 1&lt;div&gt;MEDIUM = 2&lt;/div&gt;&lt;div&gt;LARGE = 3&lt;/div&gt;&lt;div&gt;HUGE = 4&lt;/div&gt;" style="text;strokeColor=none;fillColor=none;align=left;verticalAlign=top;spacingLeft=4;spacingRight=4;overflow=hidden;rotatable=0;points=[[0,0.5],[1,0.5]];portConstraint=eastwest;whiteSpace=wrap;html=1;container=0;shadow=0;" parent="9R0KCMgDPJzL-chy9AUO-95" vertex="1">
          <mxGeometry y="366" width="150" height="70" as="geometry" />
        </mxCell>
        <mxCell id="9R0KCMgDPJzL-chy9AUO-70" value="INTACT = 2&lt;div&gt;DAMAGED = 1&lt;/div&gt;&lt;div&gt;DESTOYED = 0&lt;/div&gt;" style="text;strokeColor=none;fillColor=none;align=left;verticalAlign=top;spacingLeft=4;spacingRight=4;overflow=hidden;rotatable=0;points=[[0,0.5],[1,0.5]];portConstraint=eastwest;whiteSpace=wrap;html=1;container=0;shadow=0;" parent="9R0KCMgDPJzL-chy9AUO-95" vertex="1">
          <mxGeometry x="190" y="366" width="150" height="70" as="geometry" />
        </mxCell>
        <mxCell id="9R0KCMgDPJzL-chy9AUO-104" value="" style="endArrow=none;html=1;rounded=0;exitX=-0.001;exitY=1.024;exitDx=0;exitDy=0;exitPerimeter=0;entryX=1;entryY=1.024;entryDx=0;entryDy=0;entryPerimeter=0;shadow=0;" parent="9R0KCMgDPJzL-chy9AUO-95" source="9R0KCMgDPJzL-chy9AUO-54" target="9R0KCMgDPJzL-chy9AUO-54" edge="1">
          <mxGeometry width="50" height="50" relative="1" as="geometry">
            <mxPoint x="110" y="280" as="sourcePoint" />
            <mxPoint x="160" y="230" as="targetPoint" />
          </mxGeometry>
        </mxCell>
        <mxCell id="9R0KCMgDPJzL-chy9AUO-100" value="" style="group;shadow=0;" parent="1" vertex="1" connectable="0">
          <mxGeometry x="-840" y="440" width="490" height="650" as="geometry" />
        </mxCell>
        <mxCell id="9R0KCMgDPJzL-chy9AUO-61" value="GameField" style="swimlane;fontStyle=1;align=center;verticalAlign=top;childLayout=stackLayout;horizontal=1;startSize=26;horizontalStack=0;resizeParent=1;resizeParentMax=0;resizeLast=0;collapsible=1;marginBottom=0;whiteSpace=wrap;html=1;container=0;shadow=0;" parent="9R0KCMgDPJzL-chy9AUO-100" vertex="1">
          <mxGeometry width="490" height="370" as="geometry" />
        </mxCell>
        <mxCell id="9R0KCMgDPJzL-chy9AUO-75" value="&amp;lt;&amp;lt;enumeration&amp;gt;&amp;gt;&lt;div&gt;CellState&lt;/div&gt;" style="swimlane;fontStyle=0;childLayout=stackLayout;horizontal=1;startSize=40;fillColor=none;horizontalStack=0;resizeParent=1;resizeParentMax=0;resizeLast=0;collapsible=1;marginBottom=0;whiteSpace=wrap;html=1;container=0;shadow=0;" parent="9R0KCMgDPJzL-chy9AUO-100" vertex="1">
          <mxGeometry y="410" width="100" height="240" as="geometry" />
        </mxCell>
        <mxCell id="9R0KCMgDPJzL-chy9AUO-79" value="" style="endArrow=open;startArrow=circlePlus;endFill=0;startFill=0;endSize=8;html=1;rounded=0;entryX=0.5;entryY=0;entryDx=0;entryDy=0;exitX=0.104;exitY=0.991;exitDx=0;exitDy=0;exitPerimeter=0;shadow=0;" parent="9R0KCMgDPJzL-chy9AUO-100" source="9R0KCMgDPJzL-chy9AUO-64" target="9R0KCMgDPJzL-chy9AUO-75" edge="1">
          <mxGeometry width="160" relative="1" as="geometry">
            <mxPoint x="710" y="140" as="sourcePoint" />
            <mxPoint x="870" y="140" as="targetPoint" />
          </mxGeometry>
        </mxCell>
        <mxCell id="9R0KCMgDPJzL-chy9AUO-81" value="Cell" style="swimlane;fontStyle=1;align=center;verticalAlign=top;childLayout=stackLayout;horizontal=1;startSize=26;horizontalStack=0;resizeParent=1;resizeParentMax=0;resizeLast=0;collapsible=1;marginBottom=0;whiteSpace=wrap;html=1;container=0;shadow=0;" parent="9R0KCMgDPJzL-chy9AUO-100" vertex="1">
          <mxGeometry x="110" y="410" width="380" height="240" as="geometry" />
        </mxCell>
        <mxCell id="9R0KCMgDPJzL-chy9AUO-87" value="" style="endArrow=open;startArrow=circlePlus;endFill=0;startFill=0;endSize=8;html=1;rounded=0;entryX=0.5;entryY=0;entryDx=0;entryDy=0;exitX=0.613;exitY=1.004;exitDx=0;exitDy=0;exitPerimeter=0;shadow=0;" parent="9R0KCMgDPJzL-chy9AUO-100" source="9R0KCMgDPJzL-chy9AUO-64" target="9R0KCMgDPJzL-chy9AUO-81" edge="1">
          <mxGeometry width="160" relative="1" as="geometry">
            <mxPoint x="570" y="330" as="sourcePoint" />
            <mxPoint x="60" y="420" as="targetPoint" />
          </mxGeometry>
        </mxCell>
        <mxCell id="9R0KCMgDPJzL-chy9AUO-62" value="&lt;div&gt;+ Type: CellState&lt;/div&gt;&lt;div&gt;+ Type: Cell&lt;/div&gt;- _width: std::size_t&lt;div&gt;- _height: std::size_t&lt;/div&gt;&lt;div&gt;- _field: std::vector&amp;lt;Cell&amp;gt;&amp;gt;&lt;/div&gt;&lt;div&gt;- _double_damage = false: bool&lt;/div&gt;&lt;div&gt;+ min_width: static const std::size_t&lt;/div&gt;&lt;div&gt;+ max_width: static const std::size_t&lt;/div&gt;&lt;div&gt;+ min_height: static const std::size_t&lt;/div&gt;&lt;div&gt;+ max_height: static const std::size_t&lt;/div&gt;" style="text;strokeColor=none;fillColor=none;align=left;verticalAlign=top;spacingLeft=4;spacingRight=4;overflow=hidden;rotatable=0;points=[[0,0.5],[1,0.5]];portConstraint=eastwest;whiteSpace=wrap;html=1;container=0;shadow=0;" parent="9R0KCMgDPJzL-chy9AUO-100" vertex="1">
          <mxGeometry y="26" width="490" height="154" as="geometry" />
        </mxCell>
        <mxCell id="9R0KCMgDPJzL-chy9AUO-63" value="" style="line;strokeWidth=1;fillColor=none;align=left;verticalAlign=middle;spacingTop=-1;spacingLeft=3;spacingRight=3;rotatable=0;labelPosition=right;points=[];portConstraint=eastwest;strokeColor=inherit;container=0;shadow=0;" parent="9R0KCMgDPJzL-chy9AUO-100" vertex="1">
          <mxGeometry y="180" width="490" height="8" as="geometry" />
        </mxCell>
        <mxCell id="9R0KCMgDPJzL-chy9AUO-64" value="+ GameField(width: std::size_t, height: std::size_t)&lt;div&gt;+ GameField(other: const GameField&amp;amp;)&lt;/div&gt;&lt;div&gt;+ GameField(other: GameField&amp;amp;&amp;amp;)&lt;/div&gt;&lt;div&gt;+ operator = (other: const GameField&amp;amp;): GameField&amp;amp;&lt;/div&gt;&lt;div&gt;+ operator = (other: GameField&amp;amp;&amp;amp;): GameField&amp;amp;&lt;/div&gt;&lt;div&gt;+ operator [] (x: std::size_t): const std::vector&amp;lt;Cell&amp;gt;&amp;amp;&lt;/div&gt;&lt;div&gt;+ width(): std::size_t&lt;/div&gt;&lt;div&gt;+ height(): std::size_t&lt;/div&gt;&lt;div&gt;+ set_double_damage(): void&lt;/div&gt;&lt;div&gt;+ is_ship(x: std::size_t, y: std::size_t): bool&lt;/div&gt;&lt;div&gt;+ place_ship(ship_ptr: const ShipPtr&amp;amp;, x: std::size_t, y: std_size_t, is_vertical: bool): void&lt;/div&gt;&lt;div&gt;+ attack(x: std::size_t, y: std::size_t): bool&lt;/div&gt;" style="text;strokeColor=none;fillColor=none;align=left;verticalAlign=top;spacingLeft=4;spacingRight=4;overflow=hidden;rotatable=0;points=[[0,0.5],[1,0.5]];portConstraint=eastwest;whiteSpace=wrap;html=1;container=0;shadow=0;" parent="9R0KCMgDPJzL-chy9AUO-100" vertex="1">
          <mxGeometry y="188" width="490" height="182" as="geometry" />
        </mxCell>
        <mxCell id="9R0KCMgDPJzL-chy9AUO-76" value="UNKNOWN&lt;div&gt;EMPTY&lt;/div&gt;&lt;div&gt;SHIP&lt;/div&gt;" style="text;strokeColor=none;fillColor=none;align=left;verticalAlign=top;spacingLeft=4;spacingRight=4;overflow=hidden;rotatable=0;points=[[0,0.5],[1,0.5]];portConstraint=eastwest;whiteSpace=wrap;html=1;container=0;shadow=0;" parent="9R0KCMgDPJzL-chy9AUO-100" vertex="1">
          <mxGeometry y="450" width="100" height="200" as="geometry" />
        </mxCell>
        <mxCell id="9R0KCMgDPJzL-chy9AUO-82" value="- _ship_ptr = nullptr: ShipPtr&lt;div&gt;- _seg_index = -1: std::size_t&lt;/div&gt;&lt;div&gt;- _is_hidden = true: bool&lt;/div&gt;&lt;div&gt;- _state = CellState::UNKNOWN: CellState&amp;nbsp;&lt;/div&gt;" style="text;strokeColor=none;fillColor=none;align=left;verticalAlign=top;spacingLeft=4;spacingRight=4;overflow=hidden;rotatable=0;points=[[0,0.5],[1,0.5]];portConstraint=eastwest;whiteSpace=wrap;html=1;container=0;shadow=0;" parent="9R0KCMgDPJzL-chy9AUO-100" vertex="1">
          <mxGeometry x="110" y="436" width="380" height="74" as="geometry" />
        </mxCell>
        <mxCell id="9R0KCMgDPJzL-chy9AUO-83" value="" style="line;strokeWidth=1;fillColor=none;align=left;verticalAlign=middle;spacingTop=-1;spacingLeft=3;spacingRight=3;rotatable=0;labelPosition=right;points=[];portConstraint=eastwest;strokeColor=inherit;container=0;shadow=0;" parent="9R0KCMgDPJzL-chy9AUO-100" vertex="1">
          <mxGeometry x="110" y="510" width="380" height="8" as="geometry" />
        </mxCell>
        <mxCell id="9R0KCMgDPJzL-chy9AUO-84" value="+ Cell()&lt;div&gt;+ operator == (cell: const Cell&amp;amp;): bool&lt;/div&gt;&lt;div&gt;+ state(): CellState&lt;/div&gt;&lt;div&gt;+ seg_state(): Ship::SegState&lt;/div&gt;&lt;div&gt;+ is_destroyed(): bool&lt;/div&gt;&lt;div&gt;+ is_ship(): bool&lt;/div&gt;&lt;div&gt;+ set_ship_seg(ship_ptr: ShipPtr const,&amp;nbsp; seg_index: const int): void&lt;/div&gt;&lt;div&gt;+ attack(): void&lt;/div&gt;" style="text;strokeColor=none;fillColor=none;align=left;verticalAlign=top;spacingLeft=4;spacingRight=4;overflow=hidden;rotatable=0;points=[[0,0.5],[1,0.5]];portConstraint=eastwest;whiteSpace=wrap;html=1;container=0;shadow=0;" parent="9R0KCMgDPJzL-chy9AUO-100" vertex="1">
          <mxGeometry x="110" y="518" width="380" height="132" as="geometry" />
        </mxCell>
        <mxCell id="9R0KCMgDPJzL-chy9AUO-98" value="" style="endArrow=none;html=1;rounded=0;exitX=0.001;exitY=0.008;exitDx=0;exitDy=0;exitPerimeter=0;shadow=0;" parent="9R0KCMgDPJzL-chy9AUO-100" source="9R0KCMgDPJzL-chy9AUO-64" edge="1">
          <mxGeometry width="50" height="50" relative="1" as="geometry">
            <mxPoint x="680" y="70" as="sourcePoint" />
            <mxPoint x="489" y="189" as="targetPoint" />
          </mxGeometry>
        </mxCell>
        <mxCell id="9R0KCMgDPJzL-chy9AUO-99" value="" style="endArrow=none;html=1;rounded=0;exitX=-0.004;exitY=-0.002;exitDx=0;exitDy=0;exitPerimeter=0;entryX=0.996;entryY=-0.002;entryDx=0;entryDy=0;entryPerimeter=0;shadow=0;" parent="9R0KCMgDPJzL-chy9AUO-100" source="9R0KCMgDPJzL-chy9AUO-84" target="9R0KCMgDPJzL-chy9AUO-84" edge="1">
          <mxGeometry width="50" height="50" relative="1" as="geometry">
            <mxPoint x="680" y="350" as="sourcePoint" />
            <mxPoint x="730" y="300" as="targetPoint" />
          </mxGeometry>
        </mxCell>
        <mxCell id="9R0KCMgDPJzL-chy9AUO-118" value="" style="group;shadow=0;" parent="1" vertex="1" connectable="0">
          <mxGeometry x="130" y="520" width="660" height="580" as="geometry" />
        </mxCell>
        <mxCell id="9R0KCMgDPJzL-chy9AUO-25" value="&lt;div&gt;&lt;span style=&quot;background-color: initial;&quot;&gt;exception&lt;/span&gt;&lt;/div&gt;" style="swimlane;fontStyle=1;align=center;verticalAlign=top;childLayout=stackLayout;horizontal=1;startSize=26;horizontalStack=0;resizeParent=1;resizeParentMax=0;resizeLast=0;collapsible=1;marginBottom=0;whiteSpace=wrap;html=1;container=0;shadow=0;" parent="9R0KCMgDPJzL-chy9AUO-118" vertex="1">
          <mxGeometry width="250" height="150" as="geometry" />
        </mxCell>
        <mxCell id="9R0KCMgDPJzL-chy9AUO-29" value="NoSkillException" style="swimlane;fontStyle=1;align=center;verticalAlign=top;childLayout=stackLayout;horizontal=1;startSize=26;horizontalStack=0;resizeParent=1;resizeParentMax=0;resizeLast=0;collapsible=1;marginBottom=0;whiteSpace=wrap;html=1;container=0;shadow=0;" parent="9R0KCMgDPJzL-chy9AUO-118" vertex="1">
          <mxGeometry x="330" width="310" height="100" as="geometry" />
        </mxCell>
        <mxCell id="9R0KCMgDPJzL-chy9AUO-33" value="OutOfBoundsException" style="swimlane;fontStyle=1;align=center;verticalAlign=top;childLayout=stackLayout;horizontal=1;startSize=26;horizontalStack=0;resizeParent=1;resizeParentMax=0;resizeLast=0;collapsible=1;marginBottom=0;whiteSpace=wrap;html=1;container=0;shadow=0;" parent="9R0KCMgDPJzL-chy9AUO-118" vertex="1">
          <mxGeometry x="330" y="110" width="310" height="100" as="geometry" />
        </mxCell>
        <mxCell id="9R0KCMgDPJzL-chy9AUO-37" value="ShipPlacementException" style="swimlane;fontStyle=1;align=center;verticalAlign=top;childLayout=stackLayout;horizontal=1;startSize=26;horizontalStack=0;resizeParent=1;resizeParentMax=0;resizeLast=0;collapsible=1;marginBottom=0;whiteSpace=wrap;html=1;container=0;shadow=0;" parent="9R0KCMgDPJzL-chy9AUO-118" vertex="1">
          <mxGeometry x="330" y="220" width="310" height="100" as="geometry" />
        </mxCell>
        <mxCell id="9R0KCMgDPJzL-chy9AUO-41" value="" style="endArrow=block;dashed=1;endFill=0;endSize=12;html=1;rounded=0;entryX=1.011;entryY=0.392;entryDx=0;entryDy=0;entryPerimeter=0;exitX=0;exitY=0.5;exitDx=0;exitDy=0;shadow=0;" parent="9R0KCMgDPJzL-chy9AUO-118" edge="1">
          <mxGeometry width="160" relative="1" as="geometry">
            <mxPoint x="327.25" y="70.52999999999975" as="sourcePoint" />
            <mxPoint x="250" y="70.00199999999995" as="targetPoint" />
          </mxGeometry>
        </mxCell>
        <mxCell id="9R0KCMgDPJzL-chy9AUO-44" value="" style="endArrow=block;dashed=1;endFill=0;endSize=12;html=1;rounded=0;entryX=1;entryY=0.5;entryDx=0;entryDy=0;exitX=0;exitY=0.5;exitDx=0;exitDy=0;shadow=0;" parent="9R0KCMgDPJzL-chy9AUO-118" source="9R0KCMgDPJzL-chy9AUO-36" target="9R0KCMgDPJzL-chy9AUO-28" edge="1">
          <mxGeometry width="160" relative="1" as="geometry">
            <mxPoint x="140" y="240" as="sourcePoint" />
            <mxPoint x="300" y="240" as="targetPoint" />
            <Array as="points">
              <mxPoint x="300" y="190" />
              <mxPoint x="300" y="92" />
            </Array>
          </mxGeometry>
        </mxCell>
        <mxCell id="9R0KCMgDPJzL-chy9AUO-45" value="" style="endArrow=block;dashed=1;endFill=0;endSize=12;html=1;rounded=0;entryX=1.001;entryY=0.758;entryDx=0;entryDy=0;entryPerimeter=0;exitX=0;exitY=0.5;exitDx=0;exitDy=0;shadow=0;" parent="9R0KCMgDPJzL-chy9AUO-118" source="9R0KCMgDPJzL-chy9AUO-40" target="9R0KCMgDPJzL-chy9AUO-28" edge="1">
          <mxGeometry width="160" relative="1" as="geometry">
            <mxPoint y="50" as="sourcePoint" />
            <mxPoint x="160" y="50" as="targetPoint" />
            <Array as="points">
              <mxPoint x="280" y="300" />
              <mxPoint x="280" y="122" />
            </Array>
          </mxGeometry>
        </mxCell>
        <mxCell id="9R0KCMgDPJzL-chy9AUO-27" value="" style="line;strokeWidth=1;fillColor=none;align=left;verticalAlign=middle;spacingTop=-1;spacingLeft=3;spacingRight=3;rotatable=0;labelPosition=right;points=[];portConstraint=eastwest;strokeColor=inherit;container=0;shadow=0;" parent="9R0KCMgDPJzL-chy9AUO-118" vertex="1">
          <mxGeometry y="26" width="250" height="8" as="geometry" />
        </mxCell>
        <mxCell id="9R0KCMgDPJzL-chy9AUO-28" value="+ exception()&lt;div&gt;&lt;code style=&quot;line-height: 21px; white-space: pre; outline-style: initial !important; outline-width: 0px !important; font-family: var(--code-font-family) !important; border-radius: 0px !important; background: none !important; border: 0px !important; inset: auto !important; float: none !important; height: auto !important; margin: 0px !important; overflow: visible !important; padding: 0px !important; position: static !important; vertical-align: baseline !important; width: auto !important; box-sizing: content-box !important; min-height: auto !important;&quot; class=&quot;cpp plain&quot;&gt;+ exception(&lt;/code&gt;&lt;code style=&quot;line-height: 21px; white-space: pre; outline-style: initial !important; outline-width: 0px !important; font-family: var(--code-font-family) !important; border-radius: 0px !important; background: none !important; border: 0px !important; inset: auto !important; float: none !important; height: auto !important; margin: 0px !important; overflow: visible !important; padding: 0px !important; position: static !important; vertical-align: baseline !important; width: auto !important; box-sizing: content-box !important; font-weight: bold !important; min-height: auto !important; color: var(--code-keyword) !important;&quot; class=&quot;cpp keyword bold&quot;&gt;const&lt;/code&gt;&lt;span style=&quot;font-family: SFMono-Regular, Consolas, &amp;quot;Liberation Mono&amp;quot;, Menlo, Courier, monospace; white-space: pre; background-color: rgb(245, 245, 250);&quot;&gt; &lt;/span&gt;&lt;code style=&quot;line-height: 21px; white-space: pre; outline-style: initial !important; outline-width: 0px !important; font-family: var(--code-font-family) !important; border-radius: 0px !important; background: none !important; border: 0px !important; inset: auto !important; float: none !important; height: auto !important; margin: 0px !important; overflow: visible !important; padding: 0px !important; position: static !important; vertical-align: baseline !important; width: auto !important; box-sizing: content-box !important; min-height: auto !important;&quot; class=&quot;cpp plain&quot;&gt;exception&amp;amp;)&lt;/code&gt;&lt;/div&gt;&lt;div&gt;&lt;code style=&quot;line-height: 21px; white-space: pre; outline-style: initial !important; outline-width: 0px !important; font-family: var(--code-font-family) !important; border-radius: 0px !important; background: none !important; border: 0px !important; inset: auto !important; float: none !important; height: auto !important; margin: 0px !important; overflow: visible !important; padding: 0px !important; position: static !important; vertical-align: baseline !important; width: auto !important; box-sizing: content-box !important; min-height: auto !important;&quot; class=&quot;cpp plain&quot;&gt;+&lt;/code&gt;&lt;code style=&quot;line-height: 21px; white-space: pre; outline-style: initial !important; outline-width: 0px !important; background: none !important; font-family: var(--code-font-family) !important; border-radius: 0px !important; border: 0px !important; inset: auto !important; float: none !important; height: auto !important; margin: 0px !important; overflow: visible !important; padding: 0px !important; position: static !important; vertical-align: baseline !important; width: auto !important; box-sizing: content-box !important; min-height: auto !important;&quot; class=&quot;cpp plain&quot;&gt;exception&amp;amp; operator=(&lt;/code&gt;&lt;code style=&quot;line-height: 21px; white-space: pre; outline-style: initial !important; outline-width: 0px !important; background: none !important; color: var(--code-keyword) !important; font-family: var(--code-font-family) !important; border-radius: 0px !important; border: 0px !important; inset: auto !important; float: none !important; height: auto !important; margin: 0px !important; overflow: visible !important; padding: 0px !important; position: static !important; vertical-align: baseline !important; width: auto !important; box-sizing: content-box !important; font-weight: bold !important; min-height: auto !important;&quot; class=&quot;cpp keyword bold&quot;&gt;const&lt;/code&gt;&lt;span style=&quot;font-family: SFMono-Regular, Consolas, &amp;quot;Liberation Mono&amp;quot;, Menlo, Courier, monospace; white-space: pre; background-color: rgb(245, 245, 250);&quot;&gt; &lt;/span&gt;&lt;code style=&quot;line-height: 21px; white-space: pre; outline-style: initial !important; outline-width: 0px !important; background: none !important; font-family: var(--code-font-family) !important; border-radius: 0px !important; border: 0px !important; inset: auto !important; float: none !important; height: auto !important; margin: 0px !important; overflow: visible !important; padding: 0px !important; position: static !important; vertical-align: baseline !important; width: auto !important; box-sizing: content-box !important; min-height: auto !important;&quot; class=&quot;cpp plain&quot;&gt;exception&amp;amp;)&lt;/code&gt;&lt;/div&gt;&lt;div&gt;&lt;code style=&quot;line-height: 21px; white-space: pre; outline-style: initial !important; outline-width: 0px !important; background: none !important; font-family: var(--code-font-family) !important; border-radius: 0px !important; border: 0px !important; inset: auto !important; float: none !important; height: auto !important; margin: 0px !important; overflow: visible !important; padding: 0px !important; position: static !important; vertical-align: baseline !important; width: auto !important; box-sizing: content-box !important; min-height: auto !important;&quot; class=&quot;cpp plain&quot;&gt;+ &lt;/code&gt;&lt;code style=&quot;line-height: 21px; white-space: pre; outline-style: initial !important; outline-width: 0px !important; background: none !important; color: var(--code-keyword) !important; font-family: var(--code-font-family) !important; border-radius: 0px !important; border: 0px !important; inset: auto !important; float: none !important; height: auto !important; margin: 0px !important; overflow: visible !important; padding: 0px !important; position: static !important; vertical-align: baseline !important; width: auto !important; box-sizing: content-box !important; font-weight: bold !important; min-height: auto !important;&quot; class=&quot;cpp keyword bold&quot;&gt;virtual&lt;/code&gt;&lt;span style=&quot;font-family: SFMono-Regular, Consolas, &amp;quot;Liberation Mono&amp;quot;, Menlo, Courier, monospace; white-space: pre; background-color: rgb(245, 245, 250);&quot;&gt; &lt;/span&gt;&lt;code style=&quot;line-height: 21px; white-space: pre; outline-style: initial !important; outline-width: 0px !important; background: none !important; font-family: var(--code-font-family) !important; border-radius: 0px !important; border: 0px !important; inset: auto !important; float: none !important; height: auto !important; margin: 0px !important; overflow: visible !important; padding: 0px !important; position: static !important; vertical-align: baseline !important; width: auto !important; box-sizing: content-box !important; min-height: auto !important;&quot; class=&quot;cpp plain&quot;&gt;~exception()&lt;/code&gt;&lt;/div&gt;&lt;div&gt;&lt;code style=&quot;line-height: 21px; white-space: pre; outline-style: initial !important; outline-width: 0px !important; background: none !important; font-family: var(--code-font-family) !important; border-radius: 0px !important; border: 0px !important; inset: auto !important; float: none !important; height: auto !important; margin: 0px !important; overflow: visible !important; padding: 0px !important; position: static !important; vertical-align: baseline !important; width: auto !important; box-sizing: content-box !important; min-height: auto !important;&quot; class=&quot;cpp plain&quot;&gt;+ &lt;/code&gt;&lt;code style=&quot;line-height: 21px; white-space: pre; outline-style: initial !important; outline-width: 0px !important; background: none !important; color: var(--code-keyword) !important; font-family: var(--code-font-family) !important; border-radius: 0px !important; border: 0px !important; inset: auto !important; float: none !important; height: auto !important; margin: 0px !important; overflow: visible !important; padding: 0px !important; position: static !important; vertical-align: baseline !important; width: auto !important; box-sizing: content-box !important; font-weight: bold !important; min-height: auto !important;&quot; class=&quot;cpp keyword bold&quot;&gt;virtual&lt;/code&gt;&lt;code style=&quot;line-height: 21px; white-space: pre; background-color: rgb(245, 245, 250); outline-style: initial !important; outline-width: 0px !important; background-image: none !important; background-position: initial !important; background-size: initial !important; background-repeat: initial !important; background-attachment: initial !important; background-origin: initial !important; background-clip: initial !important; color: var(--code-keyword) !important; border-radius: 0px !important; border: 0px !important; inset: auto !important; float: none !important; height: auto !important; margin: 0px !important; overflow: visible !important; padding: 0px !important; position: static !important; vertical-align: baseline !important; width: auto !important; box-sizing: content-box !important; font-weight: bold !important; min-height: auto !important;&quot; class=&quot;cpp keyword bold&quot;&gt;&lt;font face=&quot;SFMono-Regular, Consolas, Liberation Mono, Menlo, Courier, monospace&quot;&gt; &lt;/font&gt;&lt;/code&gt;&lt;code style=&quot;line-height: 21px; white-space: pre; outline-style: initial !important; outline-width: 0px !important; background: none !important; font-family: var(--code-font-family) !important; border-radius: 0px !important; border: 0px !important; inset: auto !important; float: none !important; height: auto !important; margin: 0px !important; overflow: visible !important; padding: 0px !important; position: static !important; vertical-align: baseline !important; width: auto !important; box-sizing: content-box !important; min-height: auto !important;&quot; class=&quot;cpp plain&quot;&gt;what(): const char&lt;/code&gt;&lt;/div&gt;" style="text;strokeColor=none;fillColor=none;align=left;verticalAlign=top;spacingLeft=4;spacingRight=4;overflow=hidden;rotatable=0;points=[[0,0.5],[1,0.5]];portConstraint=eastwest;whiteSpace=wrap;html=1;container=0;shadow=0;" parent="9R0KCMgDPJzL-chy9AUO-118" vertex="1">
          <mxGeometry y="34" width="250" height="116" as="geometry" />
        </mxCell>
        <mxCell id="9R0KCMgDPJzL-chy9AUO-30" value="- _message: std::string" style="text;strokeColor=none;fillColor=none;align=left;verticalAlign=top;spacingLeft=4;spacingRight=4;overflow=hidden;rotatable=0;points=[[0,0.5],[1,0.5]];portConstraint=eastwest;whiteSpace=wrap;html=1;container=0;shadow=0;" parent="9R0KCMgDPJzL-chy9AUO-118" vertex="1">
          <mxGeometry x="330" y="26" width="310" height="26" as="geometry" />
        </mxCell>
        <mxCell id="9R0KCMgDPJzL-chy9AUO-31" value="" style="line;strokeWidth=1;fillColor=none;align=left;verticalAlign=middle;spacingTop=-1;spacingLeft=3;spacingRight=3;rotatable=0;labelPosition=right;points=[];portConstraint=eastwest;strokeColor=inherit;container=0;shadow=0;" parent="9R0KCMgDPJzL-chy9AUO-118" vertex="1">
          <mxGeometry x="330" y="52" width="310" height="8" as="geometry" />
        </mxCell>
        <mxCell id="9R0KCMgDPJzL-chy9AUO-32" value="+ NoSkillException(message: const std::string&amp;amp;)&lt;div&gt;+ what(): const char*&lt;/div&gt;" style="text;strokeColor=none;fillColor=none;align=left;verticalAlign=top;spacingLeft=4;spacingRight=4;overflow=hidden;rotatable=0;points=[[0,0.5],[1,0.5]];portConstraint=eastwest;whiteSpace=wrap;html=1;container=0;shadow=0;" parent="9R0KCMgDPJzL-chy9AUO-118" vertex="1">
          <mxGeometry x="330" y="60" width="310" height="40" as="geometry" />
        </mxCell>
        <mxCell id="9R0KCMgDPJzL-chy9AUO-34" value="- _message: std::string" style="text;strokeColor=none;fillColor=none;align=left;verticalAlign=top;spacingLeft=4;spacingRight=4;overflow=hidden;rotatable=0;points=[[0,0.5],[1,0.5]];portConstraint=eastwest;whiteSpace=wrap;html=1;container=0;shadow=0;" parent="9R0KCMgDPJzL-chy9AUO-118" vertex="1">
          <mxGeometry x="330" y="136" width="310" height="26" as="geometry" />
        </mxCell>
        <mxCell id="9R0KCMgDPJzL-chy9AUO-35" value="" style="line;strokeWidth=1;fillColor=none;align=left;verticalAlign=middle;spacingTop=-1;spacingLeft=3;spacingRight=3;rotatable=0;labelPosition=right;points=[];portConstraint=eastwest;strokeColor=inherit;container=0;shadow=0;" parent="9R0KCMgDPJzL-chy9AUO-118" vertex="1">
          <mxGeometry x="330" y="162" width="310" height="8" as="geometry" />
        </mxCell>
        <mxCell id="9R0KCMgDPJzL-chy9AUO-36" value="+ OutOfBoundsException&lt;span style=&quot;background-color: initial;&quot;&gt;(message: const std::string&amp;amp;)&lt;/span&gt;&lt;div&gt;&lt;div&gt;+ what(): const char*&lt;/div&gt;&lt;/div&gt;" style="text;strokeColor=none;fillColor=none;align=left;verticalAlign=top;spacingLeft=4;spacingRight=4;overflow=hidden;rotatable=0;points=[[0,0.5],[1,0.5]];portConstraint=eastwest;whiteSpace=wrap;html=1;container=0;shadow=0;" parent="9R0KCMgDPJzL-chy9AUO-118" vertex="1">
          <mxGeometry x="330" y="170" width="310" height="40" as="geometry" />
        </mxCell>
        <mxCell id="9R0KCMgDPJzL-chy9AUO-38" value="- _message: std::string" style="text;strokeColor=none;fillColor=none;align=left;verticalAlign=top;spacingLeft=4;spacingRight=4;overflow=hidden;rotatable=0;points=[[0,0.5],[1,0.5]];portConstraint=eastwest;whiteSpace=wrap;html=1;container=0;shadow=0;" parent="9R0KCMgDPJzL-chy9AUO-118" vertex="1">
          <mxGeometry x="330" y="246" width="310" height="26" as="geometry" />
        </mxCell>
        <mxCell id="9R0KCMgDPJzL-chy9AUO-39" value="" style="line;strokeWidth=1;fillColor=none;align=left;verticalAlign=middle;spacingTop=-1;spacingLeft=3;spacingRight=3;rotatable=0;labelPosition=right;points=[];portConstraint=eastwest;strokeColor=inherit;container=0;shadow=0;" parent="9R0KCMgDPJzL-chy9AUO-118" vertex="1">
          <mxGeometry x="330" y="272" width="310" height="8" as="geometry" />
        </mxCell>
        <mxCell id="9R0KCMgDPJzL-chy9AUO-40" value="+ ShipPlacementException(message: const std::string&amp;amp;)&lt;div&gt;+ what(): const char*&lt;/div&gt;" style="text;strokeColor=none;fillColor=none;align=left;verticalAlign=top;spacingLeft=4;spacingRight=4;overflow=hidden;rotatable=0;points=[[0,0.5],[1,0.5]];portConstraint=eastwest;whiteSpace=wrap;html=1;container=0;shadow=0;" parent="9R0KCMgDPJzL-chy9AUO-118" vertex="1">
          <mxGeometry x="330" y="280" width="310" height="40" as="geometry" />
        </mxCell>
        <mxCell id="9R0KCMgDPJzL-chy9AUO-105" value="" style="endArrow=none;html=1;rounded=0;entryX=-0.001;entryY=-0.071;entryDx=0;entryDy=0;entryPerimeter=0;exitX=0.997;exitY=-0.041;exitDx=0;exitDy=0;exitPerimeter=0;shadow=0;" parent="9R0KCMgDPJzL-chy9AUO-118" source="9R0KCMgDPJzL-chy9AUO-40" target="9R0KCMgDPJzL-chy9AUO-40" edge="1">
          <mxGeometry width="50" height="50" relative="1" as="geometry">
            <mxPoint x="500" y="520" as="sourcePoint" />
            <mxPoint x="550" y="470" as="targetPoint" />
          </mxGeometry>
        </mxCell>
        <mxCell id="9R0KCMgDPJzL-chy9AUO-106" value="" style="endArrow=none;html=1;rounded=0;entryX=-0.001;entryY=-0.071;entryDx=0;entryDy=0;entryPerimeter=0;exitX=0.997;exitY=-0.041;exitDx=0;exitDy=0;exitPerimeter=0;shadow=0;" parent="9R0KCMgDPJzL-chy9AUO-118" edge="1">
          <mxGeometry width="50" height="50" relative="1" as="geometry">
            <mxPoint x="639.5" y="161.82" as="sourcePoint" />
            <mxPoint x="330.5" y="160.82" as="targetPoint" />
          </mxGeometry>
        </mxCell>
        <mxCell id="9R0KCMgDPJzL-chy9AUO-116" value="" style="endArrow=none;html=1;rounded=0;entryX=-0.001;entryY=-0.071;entryDx=0;entryDy=0;entryPerimeter=0;exitX=0.997;exitY=-0.041;exitDx=0;exitDy=0;exitPerimeter=0;shadow=0;" parent="9R0KCMgDPJzL-chy9AUO-118" edge="1">
          <mxGeometry width="50" height="50" relative="1" as="geometry">
            <mxPoint x="640" y="56.41" as="sourcePoint" />
            <mxPoint x="331" y="55.41" as="targetPoint" />
          </mxGeometry>
        </mxCell>
        <mxCell id="Vvuqu_RBVbpqax8vt9_y-1" value="File" style="swimlane;fontStyle=1;align=center;verticalAlign=top;childLayout=stackLayout;horizontal=1;startSize=26;horizontalStack=0;resizeParent=1;resizeParentMax=0;resizeLast=0;collapsible=1;marginBottom=0;whiteSpace=wrap;html=1;" vertex="1" parent="9R0KCMgDPJzL-chy9AUO-118">
          <mxGeometry x="-10" y="330" width="290" height="230" as="geometry" />
        </mxCell>
        <mxCell id="Vvuqu_RBVbpqax8vt9_y-2" value="- _name: std::string&lt;div&gt;- _in: std::ifsrream&lt;/div&gt;&lt;div&gt;- _out: std::ofstream&lt;/div&gt;" style="text;strokeColor=none;fillColor=none;align=left;verticalAlign=top;spacingLeft=4;spacingRight=4;overflow=hidden;rotatable=0;points=[[0,0.5],[1,0.5]];portConstraint=eastwest;whiteSpace=wrap;html=1;" vertex="1" parent="Vvuqu_RBVbpqax8vt9_y-1">
          <mxGeometry y="26" width="290" height="54" as="geometry" />
        </mxCell>
        <mxCell id="Vvuqu_RBVbpqax8vt9_y-3" value="" style="line;strokeWidth=1;fillColor=none;align=left;verticalAlign=middle;spacingTop=-1;spacingLeft=3;spacingRight=3;rotatable=0;labelPosition=right;points=[];portConstraint=eastwest;strokeColor=inherit;" vertex="1" parent="Vvuqu_RBVbpqax8vt9_y-1">
          <mxGeometry y="80" width="290" height="8" as="geometry" />
        </mxCell>
        <mxCell id="Vvuqu_RBVbpqax8vt9_y-4" value="+ File(std::string name)&lt;div&gt;+ open_read(): void&lt;/div&gt;&lt;div&gt;+ open_write(): void&lt;/div&gt;&lt;div&gt;+ read(json &amp;amp;j): void&lt;/div&gt;&lt;div&gt;+ write(const json &amp;amp;j): void&lt;/div&gt;&lt;div&gt;+ close_read(): void&lt;/div&gt;&lt;div&gt;+ close_write(): void&lt;/div&gt;&lt;div&gt;+ ~File()&lt;/div&gt;" style="text;strokeColor=none;fillColor=none;align=left;verticalAlign=top;spacingLeft=4;spacingRight=4;overflow=hidden;rotatable=0;points=[[0,0.5],[1,0.5]];portConstraint=eastwest;whiteSpace=wrap;html=1;" vertex="1" parent="Vvuqu_RBVbpqax8vt9_y-1">
          <mxGeometry y="88" width="290" height="142" as="geometry" />
        </mxCell>
        <mxCell id="9R0KCMgDPJzL-chy9AUO-119" value="Use" style="endArrow=open;endSize=12;dashed=1;html=1;rounded=0;exitX=0.856;exitY=1.056;exitDx=0;exitDy=0;exitPerimeter=0;entryX=0.5;entryY=0;entryDx=0;entryDy=0;shadow=0;" parent="1" source="9R0KCMgDPJzL-chy9AUO-52" target="9R0KCMgDPJzL-chy9AUO-57" edge="1">
          <mxGeometry width="160" relative="1" as="geometry">
            <mxPoint x="-170" y="560" as="sourcePoint" />
            <mxPoint x="-10" y="560" as="targetPoint" />
            <Array as="points">
              <mxPoint x="-350" y="400" />
              <mxPoint x="-100" y="400" />
            </Array>
          </mxGeometry>
        </mxCell>
        <mxCell id="9R0KCMgDPJzL-chy9AUO-120" value="Use" style="endArrow=open;endSize=12;dashed=1;html=1;rounded=0;exitX=0.479;exitY=0.976;exitDx=0;exitDy=0;exitPerimeter=0;entryX=0.5;entryY=0;entryDx=0;entryDy=0;shadow=0;" parent="1" source="9R0KCMgDPJzL-chy9AUO-52" target="9R0KCMgDPJzL-chy9AUO-61" edge="1">
          <mxGeometry width="160" relative="1" as="geometry">
            <mxPoint x="-170" y="560" as="sourcePoint" />
            <mxPoint x="-10" y="560" as="targetPoint" />
            <Array as="points">
              <mxPoint x="-525" y="400" />
              <mxPoint x="-595" y="400" />
            </Array>
          </mxGeometry>
        </mxCell>
        <mxCell id="9R0KCMgDPJzL-chy9AUO-122" value="" style="endArrow=none;html=1;rounded=0;entryX=0.5;entryY=1.014;entryDx=0;entryDy=0;entryPerimeter=0;exitX=0.5;exitY=0;exitDx=0;exitDy=0;shadow=0;" parent="1" source="9R0KCMgDPJzL-chy9AUO-53" target="9R0KCMgDPJzL-chy9AUO-60" edge="1">
          <mxGeometry width="50" height="50" relative="1" as="geometry">
            <mxPoint x="-200" y="730" as="sourcePoint" />
            <mxPoint x="-150" y="680" as="targetPoint" />
          </mxGeometry>
        </mxCell>
        <mxCell id="9R0KCMgDPJzL-chy9AUO-123" value="&lt;font style=&quot;font-size: 14px;&quot;&gt;1&lt;/font&gt;" style="text;html=1;align=center;verticalAlign=middle;resizable=0;points=[];autosize=1;strokeColor=none;fillColor=none;shadow=0;" parent="1" vertex="1">
          <mxGeometry x="-130" y="600" width="30" height="30" as="geometry" />
        </mxCell>
        <mxCell id="9R0KCMgDPJzL-chy9AUO-125" value="&lt;font style=&quot;font-size: 14px;&quot;&gt;*&lt;/font&gt;" style="text;html=1;align=center;verticalAlign=middle;resizable=0;points=[];autosize=1;strokeColor=none;fillColor=none;shadow=0;" parent="1" vertex="1">
          <mxGeometry x="-100" y="620" width="30" height="30" as="geometry" />
        </mxCell>
        <mxCell id="9R0KCMgDPJzL-chy9AUO-126" value="" style="endArrow=none;html=1;rounded=0;entryX=0.997;entryY=0.23;entryDx=0;entryDy=0;entryPerimeter=0;exitX=0;exitY=0.5;exitDx=0;exitDy=0;shadow=0;" parent="1" source="9R0KCMgDPJzL-chy9AUO-12" target="9R0KCMgDPJzL-chy9AUO-52" edge="1">
          <mxGeometry width="50" height="50" relative="1" as="geometry">
            <mxPoint x="-120" y="460" as="sourcePoint" />
            <mxPoint x="-70" y="410" as="targetPoint" />
            <Array as="points">
              <mxPoint x="60" y="121" />
              <mxPoint x="60" y="322" />
            </Array>
          </mxGeometry>
        </mxCell>
        <mxCell id="9R0KCMgDPJzL-chy9AUO-127" value="&lt;font size=&quot;1&quot;&gt;0&lt;/font&gt;" style="text;html=1;align=center;verticalAlign=middle;resizable=0;points=[];autosize=1;strokeColor=none;fillColor=none;shadow=0;" parent="1" vertex="1">
          <mxGeometry x="-270" y="290" width="30" height="30" as="geometry" />
        </mxCell>
        <mxCell id="9R0KCMgDPJzL-chy9AUO-128" value="&lt;span style=&quot;font-size: 14px;&quot;&gt;*&lt;/span&gt;" style="text;html=1;align=center;verticalAlign=middle;resizable=0;points=[];autosize=1;strokeColor=none;fillColor=none;shadow=0;" parent="1" vertex="1">
          <mxGeometry x="80" y="120" width="30" height="30" as="geometry" />
        </mxCell>
        <mxCell id="Vvuqu_RBVbpqax8vt9_y-5" value="GameState" style="swimlane;fontStyle=1;align=center;verticalAlign=top;childLayout=stackLayout;horizontal=1;startSize=26;horizontalStack=0;resizeParent=1;resizeParentMax=0;resizeLast=0;collapsible=1;marginBottom=0;whiteSpace=wrap;html=1;" vertex="1" parent="1">
          <mxGeometry x="-750" width="470" height="230" as="geometry" />
        </mxCell>
        <mxCell id="Vvuqu_RBVbpqax8vt9_y-6" value="- _file_name: std::string&lt;div&gt;- _saved_data: json&lt;/div&gt;" style="text;strokeColor=none;fillColor=none;align=left;verticalAlign=top;spacingLeft=4;spacingRight=4;overflow=hidden;rotatable=0;points=[[0,0.5],[1,0.5]];portConstraint=eastwest;whiteSpace=wrap;html=1;" vertex="1" parent="Vvuqu_RBVbpqax8vt9_y-5">
          <mxGeometry y="26" width="470" height="44" as="geometry" />
        </mxCell>
        <mxCell id="Vvuqu_RBVbpqax8vt9_y-7" value="" style="line;strokeWidth=1;fillColor=none;align=left;verticalAlign=middle;spacingTop=-1;spacingLeft=3;spacingRight=3;rotatable=0;labelPosition=right;points=[];portConstraint=eastwest;strokeColor=inherit;" vertex="1" parent="Vvuqu_RBVbpqax8vt9_y-5">
          <mxGeometry y="70" width="470" height="8" as="geometry" />
        </mxCell>
        <mxCell id="Vvuqu_RBVbpqax8vt9_y-8" value="+ GameState(std::string file_name)&lt;div&gt;+ save(const GameField &amp;amp;p_field, const GameField &amp;amp;b_field, const SkillManager &amp;amp;p_skill_manager): void&lt;/div&gt;&lt;div&gt;+ load(GameField &amp;amp;p_field, GameField &amp;amp;b_field,&lt;/div&gt;&lt;div&gt;ShipManager &amp;amp;p_manager, ShipManager &amp;amp;b_manager, SkillManager &amp;amp;p_skill_manager): void&lt;/div&gt;&lt;div&gt;+ operator &amp;gt;&amp;gt;&lt;br&gt;+ operator &amp;lt;&amp;lt;&lt;br&gt;+ write_state(): void&lt;/div&gt;" style="text;strokeColor=none;fillColor=none;align=left;verticalAlign=top;spacingLeft=4;spacingRight=4;overflow=hidden;rotatable=0;points=[[0,0.5],[1,0.5]];portConstraint=eastwest;whiteSpace=wrap;html=1;" vertex="1" parent="Vvuqu_RBVbpqax8vt9_y-5">
          <mxGeometry y="78" width="470" height="152" as="geometry" />
        </mxCell>
        <mxCell id="Vvuqu_RBVbpqax8vt9_y-9" value="Use" style="endArrow=open;endSize=12;dashed=1;html=1;rounded=0;exitX=0;exitY=0.5;exitDx=0;exitDy=0;entryX=0.078;entryY=0.005;entryDx=0;entryDy=0;entryPerimeter=0;" edge="1" parent="1" source="Vvuqu_RBVbpqax8vt9_y-8" target="9R0KCMgDPJzL-chy9AUO-61">
          <mxGeometry width="160" relative="1" as="geometry">
            <mxPoint x="-740" y="400" as="sourcePoint" />
            <mxPoint x="-90" y="400" as="targetPoint" />
            <Array as="points">
              <mxPoint x="-800" y="154" />
            </Array>
          </mxGeometry>
        </mxCell>
        <mxCell id="Vvuqu_RBVbpqax8vt9_y-10" value="Use" style="endArrow=open;endSize=12;dashed=1;html=1;rounded=0;exitX=-0.005;exitY=0.799;exitDx=0;exitDy=0;exitPerimeter=0;entryX=0;entryY=0.5;entryDx=0;entryDy=0;" edge="1" parent="1" source="Vvuqu_RBVbpqax8vt9_y-8" target="9R0KCMgDPJzL-chy9AUO-50">
          <mxGeometry width="160" relative="1" as="geometry">
            <mxPoint x="-250" y="400" as="sourcePoint" />
            <mxPoint x="-90" y="400" as="targetPoint" />
            <Array as="points">
              <mxPoint x="-780" y="199" />
              <mxPoint x="-780" y="280" />
            </Array>
          </mxGeometry>
        </mxCell>
        <mxCell id="Vvuqu_RBVbpqax8vt9_y-11" value="Use" style="endArrow=open;endSize=12;dashed=1;html=1;rounded=0;exitX=1;exitY=0.5;exitDx=0;exitDy=0;entryX=0.796;entryY=0.011;entryDx=0;entryDy=0;entryPerimeter=0;" edge="1" parent="1" source="Vvuqu_RBVbpqax8vt9_y-8" target="9R0KCMgDPJzL-chy9AUO-57">
          <mxGeometry width="160" relative="1" as="geometry">
            <mxPoint x="-250" y="400" as="sourcePoint" />
            <mxPoint x="-90" y="400" as="targetPoint" />
            <Array as="points">
              <mxPoint x="1" y="160" />
            </Array>
          </mxGeometry>
        </mxCell>
      </root>
    </mxGraphModel>
  </diagram>
</mxfile>
